<?xml version="1.0" encoding="utf-8"?>
<!-- Generator: Adobe Illustrator 22.0.1, SVG Export Plug-In . SVG Version: 6.00 Build 0)  -->
<svg version="1.0" id="レイヤー_1" xmlns="http://www.w3.org/2000/svg" xmlns:xlink="http://www.w3.org/1999/xlink" x="0px"
	 y="0px" viewBox="0 0 406.6 367" enable-background="new 0 0 406.6 367" xml:space="preserve">
<g>
	<radialGradient id="SVGID_1_" cx="203.3151" cy="185.0605" r="192.9029" gradientUnits="userSpaceOnUse">
		<stop  offset="0" style="stop-color:#FDBCC3"/>
		<stop  offset="1" style="stop-color:#FF9B87"/>
	</radialGradient>
	<path fill="url(#SVGID_1_)" d="M351.5,65.7c-45.1-39.4-92-26.2-92-26.2l-7.5-36.3l-47.3,8.5c0,0,4.1,39.1,9.7,56
		c5.6,16.9,15,81.5,0,117.7c-15,36.3-31.5,40.2-89.7,36.4C66.4,218,12.4,231,0,285.4l0.7,0.4c-1.3,3.4,6.6,10.9,17.9,17
		c11.6,6.3,22.4,8.8,24.2,5.5c0-0.1,0.1-0.2,0.1-0.3l1.5,0.8c0,0,21.7-30.9,38.6-19.7c16.9,11.3,44.9,65.1,120.4,75.9
		c80,11.4,175.2-30,195.6-117.1C421,153.9,392.7,101.7,351.5,65.7z"/>
	
		<radialGradient id="SVGID_2_" cx="188.5905" cy="266.2946" r="19.7177" gradientTransform="matrix(0.8609 -0.1631 0.1247 0.6582 32.6303 -137.1239)" gradientUnits="userSpaceOnUse">
		<stop  offset="0" style="stop-color:#FD6460"/>
		<stop  offset="1" style="stop-color:#FF7687"/>
	</radialGradient>
	<path fill="url(#SVGID_2_)" d="M250.9,3.1c-0.6-3.3-11.3-4.1-23.8-1.7c-12.5,2.4-22.2,7-21.5,10.3s11.3,4.1,23.8,1.7
		C241.9,11,251.5,6.4,250.9,3.1z"/>
	<defs>
		<filter id="Adobe_OpacityMaskFilter" filterUnits="userSpaceOnUse" x="207.4" y="14.2" width="31.5" height="188">
			<feFlood  style="flood-color:white;flood-opacity:1" result="back"/>
			<feBlend  in="SourceGraphic" in2="back" mode="normal"/>
		</filter>
	</defs>
	<mask maskUnits="userSpaceOnUse" x="207.4" y="14.2" width="31.5" height="188" id="SVGID_3_">
		<g filter="url(#Adobe_OpacityMaskFilter)">
			<defs>
				<filter id="Adobe_OpacityMaskFilter_1_" filterUnits="userSpaceOnUse" x="207.4" y="14.2" width="31.5" height="188">
					<feFlood  style="flood-color:white;flood-opacity:1" result="back"/>
					<feBlend  in="SourceGraphic" in2="back" mode="normal"/>
				</filter>
			</defs>
			<mask maskUnits="userSpaceOnUse" x="207.4" y="14.2" width="31.5" height="188" id="SVGID_3_">
				<g filter="url(#Adobe_OpacityMaskFilter_1_)">
				</g>
			</mask>
			<radialGradient id="SVGID_4_" cx="236.2406" cy="83.9391" r="90.9589" gradientUnits="userSpaceOnUse">
				<stop  offset="0" style="stop-color:#FFFFFF"/>
				<stop  offset="1" style="stop-color:#000000"/>
			</radialGradient>
			<path mask="url(#SVGID_3_)" fill="url(#SVGID_4_)" d="M212.1,21.9c0,0,6.8,40.3,11.9,68.2c5.1,27.9,9.8,86.2-16.6,112.1
				c0,0,33.8-42.5,26.8-94c-7-51.5-11.4-72.3-7.5-78.5c3.9-6.2,12.1-15.5,12.1-15.5S220.5,25.2,212.1,21.9z"/>
		</g>
	</mask>
	<radialGradient id="SVGID_5_" cx="236.2406" cy="83.9391" r="90.9589" gradientUnits="userSpaceOnUse">
		<stop  offset="0" style="stop-color:#FFFFFF"/>
		<stop  offset="1" style="stop-color:#FFFFFF"/>
	</radialGradient>
	<path fill="url(#SVGID_5_)" d="M212.1,21.9c0,0,6.8,40.3,11.9,68.2c5.1,27.9,9.8,86.2-16.6,112.1c0,0,33.8-42.5,26.8-94
		c-7-51.5-11.4-72.3-7.5-78.5c3.9-6.2,12.1-15.5,12.1-15.5S220.5,25.2,212.1,21.9z"/>
	<defs>
		<filter id="Adobe_OpacityMaskFilter_2_" filterUnits="userSpaceOnUse" x="5.3" y="228.2" width="135.4" height="60.2">
			<feFlood  style="flood-color:white;flood-opacity:1" result="back"/>
			<feBlend  in="SourceGraphic" in2="back" mode="normal"/>
		</filter>
	</defs>
	<mask maskUnits="userSpaceOnUse" x="5.3" y="228.2" width="135.4" height="60.2" id="SVGID_6_">
		<g filter="url(#Adobe_OpacityMaskFilter_2_)">
			<defs>
				<filter id="Adobe_OpacityMaskFilter_3_" filterUnits="userSpaceOnUse" x="5.3" y="228.2" width="135.4" height="60.2">
					<feFlood  style="flood-color:white;flood-opacity:1" result="back"/>
					<feBlend  in="SourceGraphic" in2="back" mode="normal"/>
				</filter>
			</defs>
			<mask maskUnits="userSpaceOnUse" x="5.3" y="228.2" width="135.4" height="60.2" id="SVGID_6_">
				<g filter="url(#Adobe_OpacityMaskFilter_3_)">
				</g>
			</mask>
			<radialGradient id="SVGID_7_" cx="50.499" cy="251.4406" r="49.7112" gradientUnits="userSpaceOnUse">
				<stop  offset="0" style="stop-color:#FFFFFF"/>
				<stop  offset="1" style="stop-color:#000000"/>
			</radialGradient>
			<path mask="url(#SVGID_6_)" fill="url(#SVGID_7_)" d="M13.8,288.4l-8.5-5.7c0,0,9-34.8,45.1-45.5c36.1-10.7,60.9-10.7,90.3-6.1
				c0,0-73.7,0.3-99.4,16.9C15.7,264.6,13.8,288.4,13.8,288.4z"/>
		</g>
	</mask>
	<radialGradient id="SVGID_8_" cx="50.499" cy="251.4406" r="49.7112" gradientUnits="userSpaceOnUse">
		<stop  offset="0" style="stop-color:#FFFFFF"/>
		<stop  offset="1" style="stop-color:#FFFFFF"/>
	</radialGradient>
	<path fill="url(#SVGID_8_)" d="M13.8,288.4l-8.5-5.7c0,0,9-34.8,45.1-45.5c36.1-10.7,60.9-10.7,90.3-6.1c0,0-73.7,0.3-99.4,16.9
		C15.7,264.6,13.8,288.4,13.8,288.4z"/>
	<radialGradient id="SVGID_9_" cx="203.3149" cy="185.0605" r="192.903" gradientUnits="userSpaceOnUse">
		<stop  offset="0" style="stop-color:#FDBCC3"/>
		<stop  offset="1" style="stop-color:#FF9B87"/>
	</radialGradient>
	<path opacity="0.15" fill="url(#SVGID_9_)" d="M351.5,65.7c-1.8-1.6-3.7-3.1-5.5-4.5c37.4,35.8,61.3,87.3,40.5,176
		c-20.4,87.2-115.6,128.6-195.6,117.1c-33.8-4.8-58.1-18.3-76.2-32.7c18.9,18,46.3,37.6,88.6,43.6c80,11.4,175.2-30,195.6-117.1
		C421,153.9,392.7,101.7,351.5,65.7z"/>
	<radialGradient id="SVGID_10_" cx="203.3149" cy="185.0605" r="192.903" gradientUnits="userSpaceOnUse">
		<stop  offset="0" style="stop-color:#FDBCC3"/>
		<stop  offset="1" style="stop-color:#FF9B87"/>
	</radialGradient>
	<path opacity="0.25" fill="url(#SVGID_10_)" d="M31.3,304.9l-1.5-0.8c0,0.1,0,0.2-0.1,0.3c-0.7,1.2-2.6,1.6-5.4,1.3
		c9.2,4.1,16.9,5.4,18.4,2.7c0-0.1,0.1-0.2,0.1-0.3l1.5,0.8c0,0,13.7-19.6,27.9-21.9c-0.8-0.7-1.6-1.2-2.3-1.7
		C53,273.9,31.3,304.9,31.3,304.9z"/>
</g>
</svg>
